<svg width="18" height="17" viewBox="0 0 18 17" fill="none" xmlns="http://www.w3.org/2000/svg">
<path d="M7.95309 1.21979C8.28309 0.206686 9.71639 0.206686 10.0453 1.21979L11.2223 4.84099C11.2942 5.06152 11.434 5.25368 11.6217 5.39C11.8094 5.52632 12.0353 5.59982 12.2673 5.59999H16.0755C17.1414 5.59999 17.5836 6.96399 16.7223 7.59099L13.6423 9.82839C13.4542 9.96482 13.3142 10.1573 13.2423 10.3782C13.1703 10.5992 13.1702 10.8372 13.2419 11.0582L14.4189 14.6794C14.7489 15.6925 13.5884 16.5362 12.7249 15.9092L9.64489 13.6718C9.45702 13.5354 9.23081 13.4619 8.99864 13.4619C8.76648 13.4619 8.54026 13.5354 8.35239 13.6718L5.27239 15.9092C4.40999 16.5362 3.25059 15.6925 3.57949 14.6794L4.75649 11.0582C4.82818 10.8372 4.82805 10.5992 4.75612 10.3782C4.68419 10.1573 4.54416 9.96482 4.35609 9.82839L1.27719 7.59209C0.41589 6.96509 0.85919 5.60109 1.92399 5.60109H5.73109C5.96324 5.60115 6.18946 5.52776 6.37737 5.39142C6.56527 5.25509 6.70522 5.0628 6.77719 4.84209L7.95419 1.22089L7.95309 1.21979Z" fill="#FFF615"/>
</svg>
