<svg width="13" height="13" viewBox="0 0 13 13" fill="none" xmlns="http://www.w3.org/2000/svg">
<path fill-rule="evenodd" clip-rule="evenodd" d="M1.50326 1.28327C1.49787 1.01816 1.598 0.761767 1.78163 0.57047C1.96525 0.379173 2.21733 0.268638 2.48244 0.263172L10.9659 0.0895443C11.2311 0.0841584 11.4874 0.184287 11.6787 0.36791C11.87 0.551534 11.9806 0.803617 11.986 1.06872L12.1597 9.55223C12.1605 9.81444 12.0583 10.0665 11.8751 10.254C11.6918 10.4416 11.4423 10.5497 11.1801 10.5551C10.918 10.5605 10.6642 10.4627 10.4735 10.2827C10.2827 10.1028 10.1703 9.85517 10.1604 9.59315L10.0362 3.5232L2.01298 11.8817C1.82932 12.073 1.57717 12.1835 1.31201 12.189C1.04685 12.1944 0.790393 12.0943 0.599058 11.9106C0.407724 11.7269 0.297184 11.4748 0.291757 11.2096C0.28633 10.9445 0.38646 10.688 0.57012 10.4967L8.59331 2.13822L2.52336 2.26245C2.25825 2.26784 2.00185 2.16771 1.81056 1.98409C1.61926 1.80046 1.50873 1.54838 1.50326 1.28327Z" fill="#EBEBEB"/>
</svg>
