<svg width="175" height="112" viewBox="0 0 175 112" fill="none" xmlns="http://www.w3.org/2000/svg">
<path fill-rule="evenodd" clip-rule="evenodd" d="M94.9166 34.8337C96.749 30.642 97.0008 25.9597 95.0277 20.9006C88.9234 5.25102 75.7785 -0.146223 60.7929 0.280337C38.9114 0.903916 13.0728 14.1297 0.608604 25.0217C0.0176739 25.5369 -0.0405246 26.4332 0.474353 27.0205C0.989542 27.6115 1.88604 27.6731 2.47697 27.1579C14.5739 16.5854 39.6393 3.72201 60.8755 3.11534C74.6353 2.7241 86.7788 7.5585 92.3836 21.9331C94.0547 26.2101 93.8289 30.1608 92.2887 33.7089C89.9546 32.7381 87.6236 31.846 85.2999 31.0359C78.8848 28.8014 61.3847 26.1531 48.9183 28.8027C39.9761 30.7057 33.6285 35.3246 34.6346 44.1188C35.195 49.0067 38.5574 52.2842 43.6037 54.0275C50.54 56.4284 60.7962 55.8692 70.4115 52.912C78.4174 50.4513 85.9664 46.3419 90.8085 41.0246C91.8703 39.8538 92.8088 38.629 93.5952 37.3494C125.713 51.4284 157.098 80.0555 171.982 110.97C172.324 111.673 173.169 111.973 173.876 111.631C174.583 111.292 174.879 110.443 174.54 109.74C159.411 78.3224 127.564 49.215 94.9166 34.8337ZM90.9417 36.2196C88.746 35.3121 86.5529 34.4763 84.3665 33.7154C78.2184 31.5761 61.4538 29.0394 49.5095 31.5786C42.1792 33.1359 36.628 36.5894 37.4523 43.797C37.8875 47.582 40.6244 49.9943 44.53 51.3487C48.8279 52.8341 54.4916 53.0503 60.4386 52.232C69.4672 50.9897 79.1451 47.3516 85.7447 41.9166C87.8363 40.1958 89.6136 38.2904 90.9417 36.2196Z" fill="url(#paint0_linear_814_613)"/>
<defs>
<linearGradient id="paint0_linear_814_613" x1="169.529" y1="51.3858" x2="-30.999" y2="35" gradientUnits="userSpaceOnUse">
<stop stop-color="#FBFBFB"/>
<stop offset="1" stop-color="#FBFBFB" stop-opacity="0"/>
</linearGradient>
</defs>
</svg>
